<svg width="440" height="440" viewBox="0 0 440 440" fill="none" xmlns="http://www.w3.org/2000/svg">
<path d="M220 310C170.294 310 130 269.706 130 220C130 170.294 170.294 130 220 130" stroke="url(#paint0_linear_420_692)" stroke-opacity="0.2"/>
<path d="M220 130C269.706 130 310 170.294 310 220C310 269.706 269.706 310 220 310" stroke="url(#paint1_linear_420_692)" stroke-opacity="0.2"/>
<circle cx="130" cy="220" r="3" fill="white"/>
<circle cx="310" cy="220" r="3" fill="white"/>
<circle cx="220" cy="130" r="3" fill="white"/>
<circle cx="220" cy="310" r="3" fill="white"/>
<circle cx="207" cy="233" r="3" fill="white"/>
<circle cx="207" cy="207" r="3" fill="white"/>
<circle cx="232" cy="207" r="3" fill="white"/>
<circle cx="232" cy="233" r="3" fill="white"/>
<path d="M207.272 232.728L130 220L207.272 207.272" stroke="url(#paint2_linear_420_692)" stroke-width="1.5" stroke-linecap="round" stroke-linejoin="round"/>
<path d="M232.456 233L219.728 310.272L207 233" stroke="url(#paint3_linear_420_692)" stroke-width="1.5" stroke-linecap="round" stroke-linejoin="round"/>
<path d="M232 208L309.272 220.728L232 233.456" stroke="url(#paint4_linear_420_692)" stroke-width="1.5" stroke-linecap="round" stroke-linejoin="round"/>
<path d="M207 207.272L219.728 130L232.456 207.272" stroke="url(#paint5_linear_420_692)" stroke-width="1.5" stroke-linecap="round" stroke-linejoin="round"/>
<path d="M232 233L339 340" stroke="url(#paint6_linear_420_692)" stroke-opacity="0.2"/>
<path d="M232 207L273 166" stroke="url(#paint7_linear_420_692)" stroke-opacity="0.2"/>
<path d="M166 274L207 233" stroke="url(#paint8_linear_420_692)" stroke-opacity="0.2"/>
<path d="M207 207L100 100" stroke="url(#paint9_linear_420_692)" stroke-opacity="0.2"/>
<circle cx="328" cy="186" r="3" fill="white"/>
<circle cx="83" cy="244" r="3" fill="white"/>
<circle cx="136" cy="186" r="3" fill="white"/>
<circle cx="196" cy="382" r="3" fill="white"/>
<circle cx="71" cy="157" r="3" fill="white"/>
<circle cx="365" cy="406" r="3" fill="white"/>
<circle cx="133" cy="403" r="3" fill="white"/>
<circle cx="365" cy="154" r="3" fill="white"/>
<circle cx="144" cy="62" r="3" fill="white"/>
<circle cx="280" cy="28" r="3" fill="white"/>
<circle cx="32" cy="349" r="3" fill="white"/>
<circle cx="277" cy="340" r="3" fill="white"/>
<circle cx="123" cy="115" r="2" fill="white" fill-opacity="0.4"/>
<circle cx="340" cy="328" r="2" fill="white" fill-opacity="0.4"/>
<circle cx="258" cy="65" r="2" fill="white" fill-opacity="0.4"/>
<circle cx="97" cy="211" r="2" fill="white" fill-opacity="0.4"/>
<circle cx="121" cy="67" r="2" fill="white" fill-opacity="0.4"/>
<circle cx="54" cy="288" r="2" fill="white" fill-opacity="0.4"/>
<circle cx="101" cy="332" r="2" fill="white" fill-opacity="0.4"/>
<circle cx="388" cy="171" r="2" fill="white" fill-opacity="0.4"/>
<circle cx="74" cy="65" r="2" fill="white" fill-opacity="0.4"/>
<circle cx="249" cy="49" r="2" fill="white" fill-opacity="0.4"/>
<defs>
<linearGradient id="paint0_linear_420_692" x1="220" y1="130" x2="220" y2="310" gradientUnits="userSpaceOnUse">
<stop stop-color="white"/>
<stop offset="1" stop-color="white" stop-opacity="0"/>
</linearGradient>
<linearGradient id="paint1_linear_420_692" x1="220" y1="310" x2="220" y2="130" gradientUnits="userSpaceOnUse">
<stop stop-color="white"/>
<stop offset="1" stop-color="white" stop-opacity="0"/>
</linearGradient>
<linearGradient id="paint2_linear_420_692" x1="207" y1="233" x2="207" y2="207" gradientUnits="userSpaceOnUse">
<stop stop-color="white"/>
<stop offset="1" stop-color="white" stop-opacity="0"/>
</linearGradient>
<linearGradient id="paint3_linear_420_692" x1="232.728" y1="233.272" x2="206.728" y2="233.272" gradientUnits="userSpaceOnUse">
<stop stop-color="white"/>
<stop offset="1" stop-color="white" stop-opacity="0"/>
</linearGradient>
<linearGradient id="paint4_linear_420_692" x1="232.272" y1="207.728" x2="232.272" y2="233.728" gradientUnits="userSpaceOnUse">
<stop stop-color="white"/>
<stop offset="1" stop-color="white" stop-opacity="0"/>
</linearGradient>
<linearGradient id="paint5_linear_420_692" x1="206.728" y1="207" x2="232.728" y2="207" gradientUnits="userSpaceOnUse">
<stop stop-color="white"/>
<stop offset="1" stop-color="white" stop-opacity="0"/>
</linearGradient>
<linearGradient id="paint6_linear_420_692" x1="232.354" y1="232.646" x2="339.354" y2="339.646" gradientUnits="userSpaceOnUse">
<stop stop-color="white"/>
<stop offset="1" stop-color="white" stop-opacity="0"/>
</linearGradient>
<linearGradient id="paint7_linear_420_692" x1="231.646" y1="206.646" x2="272.646" y2="165.646" gradientUnits="userSpaceOnUse">
<stop stop-color="white"/>
<stop offset="1" stop-color="white" stop-opacity="0"/>
</linearGradient>
<linearGradient id="paint8_linear_420_692" x1="165.646" y1="273.646" x2="206.646" y2="232.646" gradientUnits="userSpaceOnUse">
<stop stop-color="white" stop-opacity="0"/>
<stop offset="1" stop-color="white"/>
</linearGradient>
<linearGradient id="paint9_linear_420_692" x1="206.646" y1="207.354" x2="99.6464" y2="100.354" gradientUnits="userSpaceOnUse">
<stop stop-color="white"/>
<stop offset="1" stop-color="white" stop-opacity="0"/>
</linearGradient>
</defs>
</svg>
