<svg width="440" height="440" viewBox="0 0 440 440" fill="none" xmlns="http://www.w3.org/2000/svg">
<circle cx="296" cy="151" r="3" fill="white"/>
<circle cx="169" cy="244" r="3" fill="white"/>
<circle cx="247" cy="139" r="3" fill="white"/>
<circle cx="316" cy="181" r="3" fill="white"/>
<circle cx="71" cy="239" r="3" fill="white"/>
<circle cx="219" cy="122" r="3" fill="white"/>
<circle cx="219" cy="318" r="3" fill="white"/>
<circle cx="124" cy="181" r="3" fill="white"/>
<circle cx="219" cy="181" r="3" fill="white"/>
<circle cx="184" cy="377" r="3" fill="white"/>
<circle cx="59" cy="152" r="3" fill="white"/>
<circle cx="353" cy="401" r="3" fill="white"/>
<circle cx="121" cy="398" r="3" fill="white"/>
<circle cx="353" cy="149" r="3" fill="white"/>
<circle cx="132" cy="57" r="3" fill="white"/>
<circle cx="268" cy="23" r="3" fill="white"/>
<circle cx="20" cy="344" r="3" fill="white"/>
<circle cx="94" cy="266" r="3" fill="white"/>
<circle cx="265" cy="335" r="3" fill="white"/>
<circle cx="111" cy="110" r="2" fill="white" fill-opacity="0.4"/>
<circle cx="328" cy="323" r="2" fill="white" fill-opacity="0.4"/>
<circle cx="246" cy="60" r="2" fill="white" fill-opacity="0.4"/>
<circle cx="85" cy="206" r="2" fill="white" fill-opacity="0.4"/>
<circle cx="109" cy="62" r="2" fill="white" fill-opacity="0.4"/>
<circle cx="42" cy="283" r="2" fill="white" fill-opacity="0.4"/>
<circle cx="89" cy="327" r="2" fill="white" fill-opacity="0.4"/>
<circle cx="376" cy="166" r="2" fill="white" fill-opacity="0.4"/>
<circle cx="62" cy="60" r="2" fill="white" fill-opacity="0.4"/>
<circle cx="237" cy="44" r="2" fill="white" fill-opacity="0.4"/>
<path d="M219.486 122L124 179.8L219.486 318" stroke="url(#paint0_linear_420_636)" stroke-width="1.5" stroke-linejoin="round"/>
<path d="M219.486 102L124 159.8L219.486 318" stroke="url(#paint1_linear_420_636)" stroke-opacity="0.2" stroke-linejoin="round"/>
<path d="M219.486 122L316 179.8L219.486 318" stroke="url(#paint2_linear_420_636)" stroke-width="1.5" stroke-linejoin="round"/>
<path d="M219.486 122L316 199.8L219.486 338" stroke="url(#paint3_linear_420_636)" stroke-opacity="0.2" stroke-linejoin="round"/>
<path d="M316 181H124" stroke="url(#paint4_linear_420_636)" stroke-width="1.5"/>
<path d="M219 318L219 122" stroke="url(#paint5_linear_420_636)" stroke-width="1.5"/>
<path d="M219 318V406" stroke="url(#paint6_linear_420_636)" stroke-opacity="0.2"/>
<path d="M219 30V118" stroke="url(#paint7_linear_420_636)" stroke-opacity="0.2"/>
<path d="M219 201H302" stroke="url(#paint8_linear_420_636)" stroke-opacity="0.2"/>
<path d="M154 161H219" stroke="url(#paint9_linear_420_636)" stroke-opacity="0.2"/>
<path d="M188 141L219 141" stroke="url(#paint10_linear_420_636)" stroke-opacity="0.2"/>
<path d="M219 221H288" stroke="url(#paint11_linear_420_636)" stroke-opacity="0.2"/>
<path d="M219 241H274" stroke="url(#paint12_linear_420_636)" stroke-opacity="0.2"/>
<path d="M219 261H259" stroke="url(#paint13_linear_420_636)" stroke-opacity="0.2"/>
<path d="M219 281H244" stroke="url(#paint14_linear_420_636)" stroke-opacity="0.2"/>
<defs>
<linearGradient id="paint0_linear_420_636" x1="220" y1="122" x2="220" y2="318" gradientUnits="userSpaceOnUse">
<stop stop-color="white" stop-opacity="0"/>
<stop offset="1" stop-color="white"/>
</linearGradient>
<linearGradient id="paint1_linear_420_636" x1="220" y1="102" x2="220" y2="298" gradientUnits="userSpaceOnUse">
<stop stop-color="white"/>
<stop offset="1" stop-color="white" stop-opacity="0"/>
</linearGradient>
<linearGradient id="paint2_linear_420_636" x1="220" y1="122" x2="220" y2="318" gradientUnits="userSpaceOnUse">
<stop stop-color="white"/>
<stop offset="1" stop-color="white" stop-opacity="0"/>
</linearGradient>
<linearGradient id="paint3_linear_420_636" x1="220" y1="142" x2="220" y2="338" gradientUnits="userSpaceOnUse">
<stop stop-color="white" stop-opacity="0"/>
<stop offset="1" stop-color="white"/>
</linearGradient>
<linearGradient id="paint4_linear_420_636" x1="316" y1="181.5" x2="124" y2="181.5" gradientUnits="userSpaceOnUse">
<stop stop-color="white"/>
<stop offset="1" stop-color="white" stop-opacity="0"/>
</linearGradient>
<linearGradient id="paint5_linear_420_636" x1="218.5" y1="318" x2="218.5" y2="122" gradientUnits="userSpaceOnUse">
<stop stop-color="white"/>
<stop offset="1" stop-color="white" stop-opacity="0"/>
</linearGradient>
<linearGradient id="paint6_linear_420_636" x1="219.5" y1="318" x2="219.5" y2="406" gradientUnits="userSpaceOnUse">
<stop stop-color="white"/>
<stop offset="1" stop-color="white" stop-opacity="0"/>
</linearGradient>
<linearGradient id="paint7_linear_420_636" x1="219.5" y1="30" x2="219.5" y2="118" gradientUnits="userSpaceOnUse">
<stop stop-color="white" stop-opacity="0"/>
<stop offset="1" stop-color="white"/>
</linearGradient>
<linearGradient id="paint8_linear_420_636" x1="219" y1="200.5" x2="302" y2="200.5" gradientUnits="userSpaceOnUse">
<stop stop-color="white"/>
<stop offset="1" stop-color="white" stop-opacity="0"/>
</linearGradient>
<linearGradient id="paint9_linear_420_636" x1="154" y1="160.5" x2="219" y2="160.5" gradientUnits="userSpaceOnUse">
<stop stop-color="white" stop-opacity="0"/>
<stop offset="1" stop-color="white"/>
</linearGradient>
<linearGradient id="paint10_linear_420_636" x1="188" y1="140.5" x2="219" y2="140.5" gradientUnits="userSpaceOnUse">
<stop stop-color="white" stop-opacity="0"/>
<stop offset="1" stop-color="white"/>
</linearGradient>
<linearGradient id="paint11_linear_420_636" x1="219" y1="220.5" x2="288" y2="220.5" gradientUnits="userSpaceOnUse">
<stop stop-color="white"/>
<stop offset="1" stop-color="white" stop-opacity="0"/>
</linearGradient>
<linearGradient id="paint12_linear_420_636" x1="219" y1="240.5" x2="274" y2="240.5" gradientUnits="userSpaceOnUse">
<stop stop-color="white"/>
<stop offset="1" stop-color="white" stop-opacity="0"/>
</linearGradient>
<linearGradient id="paint13_linear_420_636" x1="219" y1="260.5" x2="259" y2="260.5" gradientUnits="userSpaceOnUse">
<stop stop-color="white"/>
<stop offset="1" stop-color="white" stop-opacity="0"/>
</linearGradient>
<linearGradient id="paint14_linear_420_636" x1="219" y1="280.5" x2="244" y2="280.5" gradientUnits="userSpaceOnUse">
<stop stop-color="white"/>
<stop offset="1" stop-color="white" stop-opacity="0"/>
</linearGradient>
</defs>
</svg>
